{"title":"Enemy Mine 1985 BRRip XviD MP3 Idiocracy","uid":11003603,"size":852043399,"categoryP":"video","categoryS":"movies","magnet":"?xt=urn:btih:3d82fb627b2792f8afc3c9c8203279dc898cb9f4&amp;dn=Enemy+Mine+1985+BRRip+XviD+MP3+Idiocracy&amp;tr=udp%3A%2F%2Ftracker.openbittorrent.com%3A80&amp;tr=udp%3A%2F%2Fopen.demonii.com%3A1337&amp;tr=udp%3A%2F%2Ftracker.coppersurfer.tk%3A6969&amp;tr=udp%3A%2F%2Fexodus.desync.com%3A6969","seeders":0,"leechers":1,"uploader":"Satafakap","files":3,"time":1410186411,"description":"General\n\nComplete name       : Enemy.Mine.1985.BRRip.XviD.MP3-Idiocracy.avi\nFormat              : AVI\nFormat/Info         : Audio Video Interleave\nFile size           : 804 MiB\nDuration            : 1h 48mn\nOverall bit rate    : 1 039 Kbps\nWriting application : VirtualDubMod 1.5.10.3 | www.virtualdub-fr.org\nWriting library     : VirtualDubMod build 2550/release\nSource              : Enemy.Mine.1985.720p.BluRay.x264.YIFY\nSample              : Yes\n\nVideo\n\nID                                       : 0\nFormat                                   : MPEG-4 Visual\nFormat profile                           : Advanced Simple@L5\nFormat settings, BVOP                    : 2\nFormat settings, QPel                    : No\nFormat settings, GMC                     : No warppoints\nFormat settings, Matrix                  : Default (H.263)\nCodec ID                                 : XVID\nCodec ID/Hint                            : XviD\nDuration                                 : 1h 48mn\nBit rate                                 : 902 Kbps\nWidth                                    : 640 pixels\nHeight                                   : 272 pixels\nDisplay aspect ratio                     : 2.35:1\nFrame rate                               : 23.976 fps\nColor space                              : YUV\nChroma subsampling                       : 4:2:0\nBit depth                                : 8 bits\nScan type                                : Progressive\nCompression mode                         : Lossy\nBits/(Pixel*Frame)                       : 0.216\nStream size                              : 698 MiB (87%)\nWriting library                          : XviD 1.2.1 (UTC 2008-12-04)\n\nAudio\n\nID                                       : 1\nFormat                                   : MPEG Audio\nFormat version                           : Version 1\nFormat profile                           : Layer 3\nCodec ID                                 : 55\nCodec ID/Hint                            : MP3\nDuration                                 : 1h 48mn\nBit rate mode                            : Constant\nBit rate                                 : 128 Kbps\nChannel(s)                               : 2 channels\nSampling rate                            : 48.0 KHz\nCompression mode                         : Lossy\nStream size                              : 99.0 MiB (12%)\nAlignment                                : Aligned on interleaves\nInterleave, duration                     : 42 ms (1.00 video frame)\nInterleave, preload duration             : 504 ms\nWriting library                          : LAME3.99r\nEncoding settings                        : -m s -V 4 -q 0 -lowpass 17 -b 128\n\n","torrent":{"xt":"urn:btih:3d82fb627b2792f8afc3c9c8203279dc898cb9f4","amp;dn":"Enemy+Mine+1985+BRRip+XviD+MP3+Idiocracy","amp;tr":["udp%3A%2F%2Ftracker.openbittorrent.com%3A80","udp%3A%2F%2Fopen.demonii.com%3A1337","udp%3A%2F%2Ftracker.coppersurfer.tk%3A6969","udp%3A%2F%2Fexodus.desync.com%3A6969"],"infoHash":"3d82fb627b2792f8afc3c9c8203279dc898cb9f4","infoHashBuffer":{"type":"Buffer","data":[61,130,251,98,123,39,146,248,175,195,201,200,32,50,121,220,137,140,185,244]},"announce":[],"urlList":[]}}